<?xml version="1.0" encoding="utf-8"?>
<!-- Generator: Adobe Illustrator 16.0.0, SVG Export Plug-In . SVG Version: 6.00 Build 0)  -->
<!DOCTYPE svg PUBLIC "-//W3C//DTD SVG 1.1//EN" "http://www.w3.org/Graphics/SVG/1.1/DTD/svg11.dtd">
<svg version="1.1" id="图层_1" xmlns="http://www.w3.org/2000/svg" xmlns:xlink="http://www.w3.org/1999/xlink" x="0px" y="0px"
	 width="595.28px" height="239.333px" viewBox="0 0 595.28 239.333" enable-background="new 0 0 595.28 239.333"
	 xml:space="preserve">
<g>
	<path fill="#FFFFFF" d="M104.847,208.983c-0.903,0-1.661,0-2.458,0c-20.168,0-40.334,0-60.505,0.033
		c-5.728,0.071-11.055-1.14-16.235-3.519c-6.425-2.89-10.839-7.794-13.352-14.368c-0.257-0.68-0.464-1.279-0.808-1.937
		c-0.692-1.231-2.004-1.506-2.899-0.314c-0.382,0.467-0.615,1.298-0.621,1.971c-0.012,2.364,0.065,4.849,0.067,7.188
		c0.003,5.398-0.067,10.66-0.007,15.92c0.016,3.041,2.104,5.248,5.111,5.504c0.986,0.028,1.996,0.028,2.976,0.028
		c29.639,0,59.259,0,88.986,0c1.435,0,2.871-0.026,4.441-0.254c0.865-0.024,1.746-0.05,2.735-0.3
		c2.794-0.831,4.479-3.038,4.556-5.829c0.118-0.774,0.014-1.36-0.052-1.926c-0.549-4.966-0.88-9.943-1.699-14.803
		c-1.396-8.693-2.973-17.409-4.713-26.101c-2.141-9.821-4.898-19.49-7.971-29.016c-4.652-14.374-10.232-28.468-16.949-42.012
		c-4.048-8.015-8.577-15.841-13.225-23.494c-9.882-16.45-20.331-32.608-32.563-47.406c-0.33-0.413-0.593-0.833-1.03-1.648
		c1.382-0.011,2.487-0.098,3.593-0.1c20.283-0.026,40.505-0.02,60.724-0.03c1.164,0,2.448,0.064,3.593-0.042
		c1.068-0.117,2.171-0.384,3.082-0.67c2.131-0.819,3.514-2.624,3.509-4.423c-0.021-1.84-1.495-3.594-3.561-4.417
		c-0.5-0.141-0.904-0.281-1.411-0.319c-1.649-0.211-3.277-0.375-4.9-0.375c-29.357-0.003-58.687-0.003-88.102-0.003
		c-1.179,0-2.37,0-3.597,0.139c-2.312,0.277-3.245,1.112-3.481,3.465c-0.256,2.27-0.303,4.55-0.301,6.769
		c0.003,3.725,0.119,7.359,0.184,11.049c0.005,2.351,1.243,3.75,3.184,4.84c2.348,1.326,4.692,2.64,6.966,4.146
		C35.804,57.79,50.194,72.414,62.278,89.3c12.443,17.413,21.795,36.347,29.071,56.384c3.229,8.698,6.268,17.536,8.21,26.527
		c1.91,8.968,3.336,17.966,4.771,26.94C104.853,202.345,105.236,205.392,104.847,208.983z M421.297,171.107c1.105,0,1.865,0,2.486,0
		c9.696,0,19.434,0,29.203,0c1.82,0,3.697-0.068,5.615-0.08c1.361-0.008,2.259-0.453,3.049-1.302
		c1.648-1.782,2.169-3.869,1.118-6.08c-0.824-2.083-2.231-3.039-4.442-3.039c-0.83,0-1.443,0-2.211,0c-10.777,0-21.553,0-32.332,0
		c-0.828,0-1.65,0-2.249-0.002c-0.515-4.549-0.237-35.791,0.096-37.584c0.772,0,1.601,0,2.438,0c17.662,0,35.086,0,52.496,0
		c0.852,0,1.93,0.135,2.762,0c0.672-0.142,1.381-0.276,1.934-0.694c1.936-1.105,2.764-3.646,2.211-5.804
		c-0.812-2.623-2.209-3.728-4.765-3.869c-0.612,0-1.229,0-1.838,0c-19.372,0-38.731,0-58.335,0c-0.553,0-1.383,0-2.058,0
		c-1.812,0-2.973,0.97-4.01,2.487c-0.565,1.248-0.565,2.683-0.565,4.146c0,31.185,0,62.321,0,93.568c0,0.552,0,1.225,0,1.926
		c0.277,2.781,2.12,4.537,4.975,4.711c0.555,0,1.374,0,1.934,0c22.66,0,45.324,0,68.105,0c0.724,0,1.531,0,2.361-0.041
		c0.555-0.227,1.248-0.244,1.716-0.527c1.889-1.092,2.981-3.65,2.427-5.961c-0.553-2.319-1.934-3.978-4.695-3.978
		c-0.834,0-1.66,0-2.533,0c-20.744,0-41.489,0-62.233,0c-0.8,0-1.598,0-2.659,0C421.297,196.259,421.297,183.818,421.297,171.107z
		 M316.551,78.521c-0.265,0.133-0.265,0.133-0.553,0.275c-0.817-0.971-1.37-1.935-2.211-2.764
		c-6.124-7.329-12.713-14.347-19.606-20.971c-6.633-6.394-13.266-12.616-21.006-17.591c-5.263-3.314-10.502-6.495-16.029-9.254
		c-8.578-4.15-17.42-7.189-26.814-9.19c-2.528-0.589-5.246-1.042-8.011-1.312c-2.86-0.257-5.079,1.782-5.527,4.609
		c-0.418,2.434,1.382,4.921,4.146,5.612c1.104,0.276,2.433,0.279,3.594,0.493c9.396,1.587,18.508,4.209,27.086,8.782
		c7.186,3.995,14.083,8.553,20.451,13.945c4.975,4.149,9.661,8.847,13.843,13.935c7.424,8.732,13.42,18.265,18.202,28.633
		c1.937,4.281,3.595,8.845,5.251,13.325c0.537,1.183,1.03,2.012,2.401,2.012c3.664,0,7.283,0,10.866-0.13
		c1.392-0.005,1.944-0.558,2.211-1.967c0-0.526,0-1.066,0-1.497c0-27.223,0-54.458,0-81.762c0-0.725,0-1.431-0.267-2.12
		c-0.286-2.07-1.658-3.045-3.869-3.045s-3.604,0.975-3.869,3.039c-0.288,0.965-0.288,1.937-0.288,2.903c0,17.278,0,34.55,0,51.829
		C316.551,77,316.551,77.826,316.551,78.521z M372.659,123.02c1.935,0,3.593,0,5.251,0c4.417,0,8.566,0.049,12.988,0
		c2.862-0.142,4.797-2.211,4.917-5.117c0.058-2.897-2.151-5.054-5.01-5.25c-0.607,0-1.229,0-1.836,0c-14.099,0-28.381,0-42.568,0
		c-0.767,0-1.375,0-2.211,0c-2.004,0.276-3.869,1.733-4.422,3.735c-0.553,2.345,0.285,4.833,2.211,5.938
		c1.105,0.421,2.381,0.694,3.6,0.694c4.719,0,9.668,0,14.643,0c0.662,0,1.385,0,2.211,0c0.279,2.622,0.279,84.303-0.268,85.966
		c-0.559,0-1.221,0-1.943,0c-4.693,0-9.396,0-14.09,0.001c-0.553,0.001-1.389-0.003-1.941,0.124
		c-2.764,0.404-4.422,2.241-4.422,5.116c0,2.751,1.658,4.715,4.154,5.106c0.82,0.158,1.729,0.158,2.65,0.158
		c14.029,0,28.061,0,42.123,0c0.821,0,1.649,0,2.479-0.035c2.764-0.256,4.608-2.457,4.64-5.224c0.031-2.765-1.876-4.865-4.64-5.139
		c-0.576-0.108-1.383-0.105-1.936-0.105c-4.757-0.001-9.672,0.001-14.369-0.003c-0.83,0-1.385-0.001-2.212-0.001
		C372.659,180.236,372.659,151.866,372.659,123.02z M135.581,208.983c0-1.106,0-1.946,0-2.777c0-20.307,0-40.5-0.001-60.705
		c0-1.073,0.009-2.179-0.047-3.177c-0.301-2.57-2.466-4.103-5.186-4.104c-2.555-0.003-4.716,1.659-5.042,4.133
		c-0.128,0.843-0.051,1.672-0.052,2.501c-0.017,22.659,0.048,45.318-0.161,67.92c-0.005,4.585,2.165,6.716,6.846,6.716
		c22.699-0.07,45.612,0,68.274,0c0.829,0,1.656,0,2.485-0.145c2.489-0.362,4.147-2.348,4.147-5.115c0-2.767-1.66-4.864-4.29-5.167
		c-0.961-0.08-2.066-0.08-2.897-0.08c-20.447,0-40.883,0-61.138,0C137.663,208.983,136.803,208.983,135.581,208.983z
		 M310.206,159.777c-1.27,0-2.139,0-3.008,0c-20.756,0-41.705,0-62.5,0c-0.82,0-1.658,0-2.479,0
		c-2.838,0.136-4.959,2.291-4.975,5.206c0,2.814,1.928,5.019,4.8,5.146c0.909,0.145,1.831,0.084,2.653,0.084
		c22.929,0.008,45.751,0.006,68.573-0.002c0.804-0.002,1.54,0.029,2.174-0.083c2.457-0.127,4.157-1.509,4.71-3.814
		c0.265-1.011,0.42-2.117,0.433-3.2c0.118-10.333,0.12-20.747-0.01-31.116c-0.016-1.105-0.158-2.213-0.423-3.316
		c-0.553-2.333-2.499-3.728-4.958-3.728c-2.228,0.042-4.174,1.517-4.727,3.865c-0.265,1.108-0.265,2.35-0.265,3.464
		c0,8.276,0,16.566,0,24.856C310.206,157.86,310.206,158.671,310.206,159.777z M230.739,178.972c0-11.181,0.006-22.294-0.01-33.438
		c-0.002-0.956,0.105-1.935-0.117-2.764c-0.281-2.855-2.211-4.548-4.977-4.549c-3.029-0.026-4.974,1.787-5.25,4.495
		c0,0.883,0,1.712,0,2.542c0,22.264,0,44.64,0,67.043c0,0.553,0,1.238,0,1.929c0,3.257,1.943,5.233,5.242,5.233
		c3.045,0,4.984-1.928,5.01-5.231c0.142-0.771,0.098-1.378,0.098-2.208C230.741,201.008,230.739,190.023,230.739,178.972z
		 M321.261,214.512c0-2.211-1.394-3.768-3.316-4.976c-13.552-8.198-27.14-16.472-40.9-24.613c-4.422-2.764-8.844-5.401-13.266-8.014
		c-3.051-1.808-6.283-0.276-6.92,3.316c-0.553,2.004,0.409,4.422,3.051,5.929c12.013,7.333,24.03,14.646,36.19,21.991
		c5.819,3.602,11.897,7.027,17.728,10.688C317.782,221.152,321.261,218.082,321.261,214.512z M555.651,219.213
		c9.109,0,18.249,0,27.383,0c0.795,0,1.581,0.043,2.403-0.002c2.211-0.274,3.925-1.682,4.422-3.749c0.456-2.224,0-4.268-1.928-5.656
		c-1.188-0.995-2.762-1.101-4.15-1.101c-18.769,0-37.332,0-56.096,0c-0.553,0-1.107-0.001-1.66,0.011
		c-2.762,0.414-4.649,2.479-4.649,5.242c0,2.767,1.888,4.979,4.649,5.253c0.83,0.06,1.513,0.002,2.217,0.002
		C537.397,219.213,546.499,219.213,555.651,219.213z M556.146,112.653c-9.117,0-18.236,0-27.357,0c-0.884,0-1.907,0-2.764,0
		c-2.762,0.276-4.649,2.353-4.649,5.25c-0.002,2.765,1.888,4.841,4.649,5.117c0.83,0.069,1.66,0,2.488,0c18.246,0,36.494,0,54.745,0
		c0.808,0,1.689,0.036,2.505,0c2.166-0.142,3.66-1.303,4.366-3.317c0.565-1.935,0.363-3.868-1.097-5.527
		c-1.341-1.382-2.981-1.523-4.699-1.523C574.938,112.653,565.543,112.653,556.146,112.653z M125.249,78.655
		c-0.003,0-0.008,0-0.013,0c0,5.394-0.008,10.779,0.002,16.173c0.007,3.316,0.04,6.769,0.021,10.159
		c-0.021,1.173,0.283,2.28,0.959,3.109c1.377,1.517,4.04,2.211,5.979,1.517c2.217-0.913,3.388-2.07,3.387-4.976
		c-0.018-17.272-0.016-34.551,0.001-51.822c0-2.067-0.639-3.594-2.519-4.502c-1.903-1.01-3.832-0.892-5.6,0.213
		c-1.838,0.971-2.328,2.492-2.288,4.423C125.278,61.518,125.249,70.086,125.249,78.655z M269.858,123.02L269.858,123.02
		c4.04,0,8.001,0,11.872,0c4.159,0,8.087-0.142,12.158,0.135c3.606,0.276,6.633-4.422,4.48-7.738
		c-0.922-1.793-2.27-2.764-4.48-2.764c-7.999,0-15.919,0-23.766,0c-8.005,0-16.243,0-24.319,0c-3.316,0-5.659,3.316-4.689,6.633
		c0.82,2.629,2.293,3.734,4.977,3.734C254.095,123.056,262.008,123.02,269.858,123.02z M170.167,26.966
		c7.661,0,15.126,0,22.858-0.006c2.854-0.062,4.977-2.342,4.977-5.379c-0.002-3.038-2.211-5.157-5.251-5.174
		c-14.923-0.059-29.953-0.039-45.028-0.035c-0.19,0-0.312,0.002-0.572,0.072c-1.776,0.08-3.05,0.989-3.875,2.511
		c-1.889,3.589,0.29,8.151,4.694,8.013C155.427,26.831,162.853,26.966,170.167,26.966z M170.363,123.02
		c7.463,0,14.92,0.094,22.276,0c0.942,0,2.054-0.142,3.115-0.553c1.971-1.094,2.862-3.734,2.249-5.803
		c-0.557-2.629-2.213-4.011-4.975-4.011c-14.932,0-30.12,0-45.082,0c-3.566,0-5.798,3.182-4.952,6.498
		c0.553,2.09,1.979,4.004,4.996,3.972C155.449,123.02,162.908,123.02,170.363,123.02z M556.146,170.19c0-0.008,0-0.014,0-0.021
		c6.464,0,12.99-0.04,19.584,0.061c2.248,0.049,3.678-1.197,4.463-3.141c0.824-2.061,0.553-3.995-0.834-5.777
		c-1.336-1.407-2.764-1.534-4.422-1.534c-12.428,0-24.605,0-37.014,0c-0.562,0-1.119,0-1.672,0c-1.079,0-1.934,0.404-2.71,1.105
		c-1.708,1.658-2.261,3.868-1.435,6.079c0.828,2.062,2.486,3.17,4.967,3.189C543.436,170.272,549.791,170.19,556.146,170.19z
		 M170.674,75.062L170.674,75.062c5.775,0,11.576,0,17.372,0c4.262,0,6.363-1.659,6.363-5.11c0.002-3.519-1.977-5.252-6.354-5.252
		c-11.607-0.003-23.213,0-34.816,0c-0.566,0-1.271,0-1.933,0c-1.663,0-2.783,0.964-3.619,2.346c-1.928,3.221,0.009,8.292,4.69,8.124
		C158.475,74.927,164.567,75.062,170.674,75.062z M229.804,86.394c0-6.081,0.093-12.162-0.025-18.242c0-0.83,0-1.896-0.402-2.622
		c-1.164-1.936-4.021-2.765-6.66-1.936c-2.33,0.661-3.159,1.8-3.16,4.699c0,0.276,0,0.553,0,0.829c0,11.467,0,22.941,0,34.409
		c0.001,0.694-0.275,1.384,0.001,2.076c0.276,0.829,0.553,1.659,1.105,2.212c1.451,1.579,4.423,1.935,6.666,0.908
		c2.179-0.908,2.69-2.567,2.586-4.643C229.778,98.145,229.812,92.34,229.804,86.394z M471.863,162.541
		c0.104-0.031,0.659-0.152,1.183-0.276c1.681-0.425,2.685-1.658,3.519-3.037c3.403-4.969,6.906-9.951,10.273-14.925
		c2.458-3.523,4.924-7.058,7.412-10.647c1.656-2.345,1.377-5.385-0.536-7.184c-1.675-1.665-4.44-2.069-6.64-0.552
		c-0.838,0.552-1.396,1.507-1.969,2.351c-4.949,6.912-9.646,13.821-14.348,20.729c-1.375,1.786-2.693,3.593-3.825,5.378
		C464.923,158.119,467.2,162.48,471.863,162.541z M466.331,177.739c-0.267,1.69,0.562,3.04,1.942,4.215
		c7.184,7.117,14.2,14.306,21.295,21.499c0.527,0.274,0.812,0.665,1.09,0.954c1.934,1.478,4.839,1.256,6.625-0.289
		c2.229-2.087,2.492-5.377,0.281-7.865c-1.934-1.976-3.867-3.863-5.803-5.803c-4.697-4.697-9.508-9.546-14.371-14.369
		c-0.826-0.909-1.919-1.935-3.022-2.658c-1.669-1.211-3.606-1.211-5.274-0.382C467.168,173.996,466.077,175.528,466.331,177.739z
		 M135.581,21.856c-0.008-2.907-2.245-5.252-5.238-5.257c-2.849-0.12-5.318,2.353-5.316,5.271c0.002,2.892,2.278,5.244,5.254,5.369
		C133.312,27.243,135.586,24.894,135.581,21.856z M513.869,156.875c-2.464-0.414-12.988-0.287-14.599,0.139c0,0.722,0,1.509,0,2.211
		c2.714,0.404,13.216,0.276,14.599-0.149C513.869,158.395,513.869,157.571,513.869,156.875z M513.869,150.761
		c-4.965,0.024-9.672-0.104-14.584,0.024c0,1.067,0,1.807,0,2.636c4.929,0,9.71,0,14.584,0
		C513.869,152.592,513.869,151.763,513.869,150.761z M499.223,172.891c4.98,0,9.729,0,14.641,0c0-0.955,0-1.657,0-2.512
		c-4.969,0-9.666,0-14.641,0C499.223,171.233,499.223,171.936,499.223,172.891z M499.225,178.417c4.973,0,9.702,0,14.641,0
		c0-0.955,0-1.657,0-2.562c-4.971,0-9.668,0-14.641,0C499.225,176.76,499.225,177.462,499.225,178.417z M506.684,200.135
		c4.975-0.001,9.866,0.112,14.69-0.001c-0.029-1.105-0.044-1.807-0.044-2.632c-4.975,0-9.678,0-14.61,0
		c-0.036,0.418-0.04,0.686-0.04,0.965C506.678,198.901,506.682,199.346,506.684,200.135z M521.328,130.893
		c-4.973,0-9.678,0-14.645,0c0,0.97,0,1.658,0,2.485c4.973,0,9.702,0,14.646,0c0-0.552,0.03-0.963,0.03-1.38
		C521.36,131.722,521.33,131.337,521.328,130.893z M506.684,166.822c4.989-0.079,9.941,0.14,14.679-0.137
		c0.076-0.553,0.233-0.829,0.229-1.253c-0.039-0.405-0.231-0.699-0.262-1.106c-2.764-0.404-12.994-0.276-14.646,0.149
		C506.684,165.142,506.684,165.856,506.684,166.822z M521.33,142.644c-4.975,0-9.784,0-14.646,0
		c-0.002,0.435-0.006,0.829-0.004,1.12c0,0.388,0.004,0.814,0.004,1.217c3.041,0.426,13.26,0.276,14.646-0.167
		C521.33,144.152,521.33,143.473,521.33,142.644z M521.33,136.691c-4.975,0-9.716,0-14.646,0c0,0.829,0,1.649,0,2.36
		c2.764,0.404,13.256,0.276,14.646-0.16C521.33,138.222,521.33,137.521,521.33,136.691z M506.682,187.134c4.977,0,9.704,0,14.648,0
		c0-0.97,0-1.658,0-2.39c-2.454-0.374-12.998-0.374-14.648,0.119C506.682,185.476,506.682,186.199,506.682,187.134z M521.33,191.406
		c-4.975,0-9.691,0-14.646,0c0,0.978,0,1.62,0,2.361c2.76,0.477,13.242,0.28,14.646-0.153
		C521.33,192.942,521.33,192.235,521.33,191.406z"/>
	<path fill-rule="evenodd" clip-rule="evenodd" d="M104.847,208.983c0.39-3.592,0.006-6.638-0.516-9.832
		c-1.436-8.974-2.861-17.972-4.771-26.94c-1.942-8.992-4.981-17.83-8.21-26.527c-7.276-20.037-16.628-38.971-29.071-56.384
		C50.194,72.414,35.804,57.79,18.113,46.733c-2.273-1.505-4.618-2.819-6.966-4.146c-1.94-1.091-3.179-2.489-3.184-4.84
		c-0.064-3.689-0.181-7.324-0.184-11.049c-0.002-2.219,0.045-4.499,0.301-6.769c0.236-2.354,1.168-3.188,3.481-3.465
		c1.227-0.139,2.418-0.139,3.597-0.139c29.415,0,58.744,0,88.102,0.003c1.623,0,3.251,0.164,4.9,0.375
		c0.507,0.038,0.911,0.178,1.411,0.319c2.065,0.823,3.539,2.577,3.561,4.417c0.005,1.799-1.378,3.604-3.509,4.423
		c-0.911,0.286-2.014,0.553-3.082,0.67c-1.145,0.105-2.429,0.042-3.593,0.042c-20.219,0.01-40.44,0.004-60.724,0.03
		c-1.105,0.002-2.211,0.089-3.593,0.1c0.438,0.815,0.7,1.236,1.03,1.648c12.232,14.798,22.682,30.956,32.563,47.406
		c4.647,7.652,9.177,15.479,13.225,23.494c6.717,13.544,12.297,27.638,16.949,42.012c3.072,9.526,5.83,19.195,7.971,29.016
		c1.74,8.692,3.317,17.408,4.713,26.101c0.819,4.86,1.15,9.837,1.699,14.803c0.065,0.566,0.17,1.152,0.052,1.926
		c-0.077,2.791-1.762,4.999-4.556,5.829c-0.989,0.25-1.87,0.275-2.735,0.3c-1.57,0.228-3.007,0.254-4.441,0.254
		c-29.728,0-59.348,0-88.986,0c-0.979,0-1.989,0-2.976-0.028c-3.008-0.257-5.095-2.463-5.111-5.504
		c-0.061-5.26,0.01-10.522,0.007-15.92c-0.002-2.338-0.08-4.824-0.067-7.188c0.006-0.673,0.239-1.504,0.621-1.971
		c0.896-1.192,2.207-0.917,2.899,0.314c0.344,0.658,0.551,1.256,0.808,1.937c2.513,6.574,6.927,11.478,13.352,14.368
		c5.181,2.379,10.508,3.59,16.235,3.519c20.171-0.033,40.337-0.033,60.505-0.033C103.186,208.983,103.943,208.983,104.847,208.983z"
		/>
	<path fill-rule="evenodd" clip-rule="evenodd" d="M421.297,171.107c0,12.711,0,25.152,0,37.876c1.062,0,1.859,0,2.659,0
		c20.744,0,41.489,0,62.233,0c0.873,0,1.699,0,2.533,0c2.762,0,4.143,1.658,4.695,3.978c0.555,2.311-0.538,4.869-2.427,5.961
		c-0.468,0.283-1.161,0.301-1.716,0.527c-0.83,0.041-1.638,0.041-2.361,0.041c-22.781,0-45.445,0-68.105,0c-0.56,0-1.379,0-1.934,0
		c-2.854-0.174-4.697-1.93-4.975-4.711c0-0.702,0-1.375,0-1.926c0-31.247,0-62.383,0-93.568c0-1.462,0-2.898,0.565-4.146
		c1.037-1.517,2.198-2.487,4.01-2.487c0.675,0,1.505,0,2.058,0c19.604,0,38.963,0,58.335,0c0.608,0,1.226,0,1.838,0
		c2.556,0.141,3.953,1.247,4.765,3.869c0.553,2.157-0.275,4.698-2.211,5.804c-0.553,0.418-1.262,0.553-1.934,0.694
		c-0.832,0.135-1.91,0-2.762,0c-17.41,0-34.834,0-52.496,0c-0.838,0-1.666,0-2.438,0c-0.333,1.793-0.61,33.035-0.096,37.584
		c0.599,0.002,1.421,0.002,2.249,0.002c10.779,0,21.555,0,32.332,0c0.768,0,1.381,0,2.211,0c2.211,0,3.618,0.956,4.442,3.039
		c1.051,2.211,0.53,4.298-1.118,6.08c-0.79,0.849-1.688,1.294-3.049,1.302c-1.918,0.012-3.795,0.08-5.615,0.08
		c-9.77,0-19.507,0-29.203,0C423.162,171.107,422.402,171.107,421.297,171.107z"/>
	<path fill-rule="evenodd" clip-rule="evenodd" d="M316.551,78.521c0-0.696,0-1.521,0-2.212c0-17.279,0-34.551,0-51.829
		c0-0.966,0-1.938,0.288-2.903c0.265-2.064,1.658-3.039,3.869-3.039s3.583,0.975,3.869,3.045c0.267,0.689,0.267,1.396,0.267,2.12
		c0,27.304,0,54.54,0,81.762c0,0.43,0,0.97,0,1.497c-0.267,1.409-0.819,1.962-2.211,1.967c-3.583,0.13-7.202,0.13-10.866,0.13
		c-1.371,0-1.864-0.829-2.401-2.012c-1.656-4.48-3.314-9.044-5.251-13.325c-4.782-10.369-10.778-19.901-18.202-28.633
		c-4.182-5.088-8.868-9.786-13.843-13.935c-6.368-5.392-13.266-9.95-20.451-13.945c-8.578-4.573-17.689-7.194-27.086-8.782
		c-1.161-0.214-2.49-0.217-3.594-0.493c-2.764-0.691-4.563-3.178-4.146-5.612c0.448-2.827,2.667-4.866,5.527-4.609
		c2.765,0.27,5.482,0.723,8.011,1.312c9.395,2.001,18.236,5.04,26.814,9.19c5.527,2.76,10.767,5.94,16.029,9.254
		c7.74,4.976,14.373,11.198,21.006,17.591c6.894,6.624,13.482,13.642,19.606,20.971c0.841,0.829,1.394,1.793,2.211,2.764
		C316.286,78.655,316.286,78.655,316.551,78.521z"/>
	<path fill-rule="evenodd" clip-rule="evenodd" d="M372.659,123.02c0,28.846,0,57.216,0,85.963c0.827,0,1.382,0.001,2.212,0.001
		c4.697,0.004,9.612,0.001,14.369,0.003c0.553,0,1.359-0.003,1.936,0.105c2.764,0.274,4.671,2.375,4.64,5.139
		c-0.031,2.767-1.876,4.968-4.64,5.224c-0.83,0.035-1.658,0.035-2.479,0.035c-14.062,0-28.094,0-42.123,0
		c-0.921,0-1.83,0-2.65-0.158c-2.496-0.391-4.154-2.354-4.154-5.106c0-2.875,1.658-4.712,4.422-5.116
		c0.553-0.126,1.389-0.123,1.941-0.124c4.693-0.001,9.396-0.001,14.09-0.001c0.723,0,1.385,0,1.943,0
		c0.547-1.663,0.547-83.344,0.268-85.966c-0.826,0-1.549,0-2.211,0c-4.975,0-9.924,0-14.643,0c-1.219,0-2.494-0.273-3.6-0.694
		c-1.926-1.105-2.764-3.593-2.211-5.938c0.553-2.001,2.418-3.458,4.422-3.735c0.836,0,1.444,0,2.211,0c14.188,0,28.47,0,42.568,0
		c0.607,0,1.229,0,1.836,0c2.858,0.196,5.067,2.353,5.01,5.25c-0.12,2.906-2.055,4.976-4.917,5.117c-4.422,0.049-8.571,0-12.988,0
		C376.252,123.02,374.594,123.02,372.659,123.02z"/>
	<path fill-rule="evenodd" clip-rule="evenodd" d="M135.581,208.983c1.222,0,2.082,0,2.939,0c20.255,0,40.69,0,61.138,0
		c0.831,0,1.937,0,2.897,0.08c2.63,0.304,4.29,2.401,4.29,5.167c0,2.767-1.658,4.753-4.147,5.115
		c-0.829,0.145-1.656,0.145-2.485,0.145c-22.662,0-45.575-0.07-68.274,0c-4.681,0-6.851-2.13-6.846-6.716
		c0.209-22.602,0.145-45.261,0.161-67.92c0.001-0.829-0.076-1.658,0.052-2.501c0.326-2.474,2.487-4.136,5.042-4.133
		c2.72,0.001,4.885,1.533,5.186,4.104c0.056,0.999,0.047,2.104,0.047,3.177c0.001,20.205,0.001,40.398,0.001,60.705
		C135.581,207.038,135.581,207.877,135.581,208.983z"/>
	<path fill-rule="evenodd" clip-rule="evenodd" d="M310.206,159.777c0-1.105,0-1.917,0-2.636c0-8.29,0-16.58,0-24.856
		c0-1.115,0-2.356,0.265-3.464c0.553-2.349,2.499-3.823,4.727-3.865c2.459,0,4.405,1.395,4.958,3.728
		c0.265,1.103,0.407,2.211,0.423,3.316c0.13,10.369,0.128,20.783,0.01,31.116c-0.013,1.083-0.168,2.188-0.433,3.2
		c-0.553,2.305-2.253,3.687-4.71,3.814c-0.634,0.112-1.37,0.081-2.174,0.083c-22.822,0.008-45.645,0.01-68.573,0.002
		c-0.822,0-1.744,0.061-2.653-0.084c-2.872-0.127-4.8-2.333-4.8-5.146c0.016-2.915,2.137-5.07,4.975-5.206c0.82,0,1.658,0,2.479,0
		c20.795,0,41.744,0,62.5,0C308.067,159.777,308.937,159.777,310.206,159.777z"/>
	<path fill-rule="evenodd" clip-rule="evenodd" d="M230.739,178.972c0,11.052,0.002,22.037-0.004,33.052
		c0,0.83,0.044,1.438-0.098,2.208c-0.025,3.303-1.965,5.231-5.01,5.231c-3.299,0-5.242-1.977-5.242-5.233c0-0.691,0-1.376,0-1.929
		c0-22.403,0-44.779,0-67.043c0-0.829,0-1.658,0-2.542c0.276-2.708,2.221-4.521,5.25-4.495c2.766,0.001,4.695,1.694,4.977,4.549
		c0.223,0.829,0.115,1.808,0.117,2.764C230.745,156.677,230.739,167.791,230.739,178.972z"/>
	<path fill-rule="evenodd" clip-rule="evenodd" d="M321.261,214.512c0,3.57-3.479,6.641-7.434,4.322
		c-5.83-3.661-11.908-7.085-17.728-10.688c-12.16-7.345-24.178-14.657-36.19-21.991c-2.642-1.507-3.604-3.925-3.051-5.929
		c0.637-3.593,3.869-5.125,6.92-3.316c4.422,2.613,8.844,5.25,13.266,8.014c13.761,8.141,27.349,16.415,40.9,24.613
		C319.867,210.744,321.261,212.301,321.261,214.512z"/>
	<path fill-rule="evenodd" clip-rule="evenodd" d="M555.651,219.213c-9.152,0-18.254,0-27.409,0c-0.704,0-1.387,0.058-2.217-0.002
		c-2.762-0.274-4.649-2.486-4.649-5.253c0-2.764,1.888-4.829,4.649-5.242c0.553-0.012,1.107-0.011,1.66-0.011
		c18.764,0,37.327,0,56.096,0c1.389,0,2.963,0.106,4.15,1.101c1.928,1.388,2.384,3.432,1.928,5.656
		c-0.497,2.067-2.211,3.475-4.422,3.749c-0.822,0.045-1.608,0.002-2.403,0.002C573.9,219.213,564.761,219.213,555.651,219.213z"/>
	<path fill-rule="evenodd" clip-rule="evenodd" d="M556.146,112.653c9.396,0,18.791,0,28.188,0c1.718,0,3.358,0.141,4.699,1.523
		c1.46,1.659,1.662,3.593,1.097,5.527c-0.706,2.014-2.2,3.175-4.366,3.317c-0.815,0.036-1.697,0-2.505,0
		c-18.251,0-36.499,0-54.745,0c-0.828,0-1.658,0.069-2.488,0c-2.762-0.276-4.651-2.353-4.649-5.117c0-2.897,1.888-4.974,4.649-5.25
		c0.856,0,1.88,0,2.764,0C537.91,112.653,547.029,112.653,556.146,112.653z"/>
	<path fill-rule="evenodd" clip-rule="evenodd" d="M125.249,78.655c0-8.568,0.029-17.137-0.071-25.706
		c-0.04-1.931,0.45-3.452,2.288-4.423c1.768-1.105,3.696-1.224,5.6-0.213c1.88,0.908,2.519,2.435,2.519,4.502
		c-0.017,17.271-0.019,34.55-0.001,51.822c0.001,2.906-1.17,4.062-3.387,4.976c-1.938,0.694-4.602,0-5.979-1.517
		c-0.676-0.829-0.979-1.936-0.959-3.109c0.02-3.39-0.014-6.842-0.021-10.159c-0.01-5.394-0.002-10.78-0.002-16.173
		C125.241,78.655,125.246,78.655,125.249,78.655z"/>
	<path fill-rule="evenodd" clip-rule="evenodd" d="M269.858,123.02c-7.851,0-15.764,0.036-23.768,0
		c-2.684,0-4.156-1.105-4.977-3.734c-0.97-3.316,1.373-6.633,4.689-6.633c8.076,0,16.314,0,24.319,0c7.847,0,15.767,0,23.766,0
		c2.211,0,3.559,0.97,4.48,2.764c2.152,3.316-0.874,8.015-4.48,7.738c-4.071-0.276-7.999-0.135-12.158-0.135
		C277.859,123.02,273.898,123.02,269.858,123.02L269.858,123.02z"/>
	<path fill-rule="evenodd" clip-rule="evenodd" d="M170.167,26.966c-7.314,0-14.74-0.136-22.197,0.001
		c-4.404,0.138-6.583-4.424-4.694-8.013c0.825-1.522,2.099-2.431,3.875-2.511c0.261-0.07,0.382-0.072,0.572-0.072
		c15.075-0.004,30.105-0.024,45.028,0.035c3.04,0.017,5.249,2.136,5.251,5.174c0,3.037-2.123,5.317-4.977,5.379
		C185.293,26.966,177.828,26.966,170.167,26.966z"/>
	<path fill-rule="evenodd" clip-rule="evenodd" d="M170.363,123.02c-7.455,0-14.914,0-22.372,0.102
		c-3.018,0.033-4.443-1.881-4.996-3.972c-0.846-3.315,1.386-6.498,4.952-6.498c14.962,0,30.15,0,45.082,0
		c2.762,0,4.418,1.382,4.975,4.011c0.613,2.069-0.278,4.709-2.249,5.803c-1.062,0.411-2.173,0.553-3.115,0.553
		C185.283,123.114,177.826,123.02,170.363,123.02z"/>
	<path fill-rule="evenodd" clip-rule="evenodd" d="M556.146,170.19c-6.355,0-12.711,0.082-19.072-0.039
		c-2.48-0.019-4.139-1.127-4.967-3.189c-0.826-2.211-0.273-4.421,1.435-6.079c0.776-0.702,1.631-1.105,2.71-1.105
		c0.553,0,1.109,0,1.672,0c12.408,0,24.586,0,37.014,0c1.658,0,3.086,0.127,4.422,1.534c1.387,1.782,1.658,3.716,0.834,5.777
		c-0.785,1.944-2.215,3.19-4.463,3.141c-6.594-0.1-13.12-0.061-19.584-0.061C556.146,170.176,556.146,170.182,556.146,170.19z"/>
	<path fill-rule="evenodd" clip-rule="evenodd" d="M170.674,75.062c-6.106,0-12.199-0.134-18.297,0.108
		c-4.682,0.168-6.618-4.903-4.69-8.124c0.836-1.382,1.956-2.346,3.619-2.346c0.662,0,1.366,0,1.933,0
		c11.604,0,23.209-0.003,34.816,0c4.378,0,6.356,1.733,6.354,5.252c0,3.451-2.102,5.11-6.363,5.11
		C182.25,75.062,176.449,75.062,170.674,75.062L170.674,75.062z"/>
	<path fill-rule="evenodd" clip-rule="evenodd" d="M229.808,86.394c0.004,5.946-0.029,11.75,0.106,17.69
		c0.104,2.076-0.407,3.735-2.586,4.643c-2.243,1.027-5.215,0.671-6.666-0.908c-0.553-0.553-0.829-1.383-1.105-2.212
		c-0.276-0.692,0-1.382-0.001-2.076c0-11.468,0-22.942,0-34.409c0-0.276,0-0.553,0-0.829c0.001-2.899,0.83-4.039,3.16-4.699
		c2.639-0.829,5.496,0,6.66,1.936c0.402,0.727,0.402,1.792,0.402,2.622C229.896,74.232,229.804,80.313,229.808,86.394z"/>
	<path fill-rule="evenodd" clip-rule="evenodd" d="M471.863,162.541c-4.663-0.061-6.94-4.422-4.931-8.163
		c1.132-1.786,2.45-3.593,3.825-5.378c4.701-6.908,9.398-13.817,14.348-20.729c0.572-0.843,1.131-1.799,1.969-2.351
		c2.199-1.517,4.965-1.113,6.64,0.552c1.913,1.799,2.192,4.839,0.536,7.184c-2.488,3.589-4.954,7.125-7.412,10.647
		c-3.367,4.974-6.87,9.956-10.273,14.925c-0.834,1.379-1.838,2.612-3.519,3.037C472.522,162.389,471.968,162.509,471.863,162.541z"
		/>
	<path fill-rule="evenodd" clip-rule="evenodd" d="M466.331,177.739c-0.254-2.211,0.837-3.743,2.763-4.698
		c1.668-0.829,3.605-0.829,5.274,0.382c1.104,0.724,2.196,1.75,3.022,2.658c4.863,4.823,9.674,9.672,14.371,14.369
		c1.936,1.939,3.869,3.827,5.803,5.803c2.211,2.487,1.948,5.777-0.281,7.865c-1.786,1.545-4.691,1.767-6.625,0.289
		c-0.277-0.289-0.562-0.679-1.09-0.954c-7.095-7.193-14.111-14.382-21.295-21.499C466.893,180.779,466.064,179.429,466.331,177.739z
		"/>
	<path fill-rule="evenodd" clip-rule="evenodd" d="M135.581,21.856c0.005,3.038-2.27,5.387-5.301,5.383
		c-2.976-0.125-5.252-2.478-5.254-5.369c-0.002-2.917,2.468-5.391,5.316-5.271C133.336,16.604,135.573,18.949,135.581,21.856z"/>
	<path fill-rule="evenodd" clip-rule="evenodd" d="M513.869,150.761c0,1.002,0,1.831,0,2.66c-4.874,0-9.655,0-14.584,0
		c0-0.829,0-1.569,0-2.636"/>
	<path fill-rule="evenodd" clip-rule="evenodd" d="M499.223,172.891c0-0.955,0-1.657,0-2.512c4.975,0,9.672,0,14.641,0
		c0,0.854,0,1.557,0,2.512C508.952,172.891,504.203,172.891,499.223,172.891z"/>
	<path fill-rule="evenodd" clip-rule="evenodd" d="M499.225,178.417c0-0.955,0-1.657,0-2.562c4.973,0,9.67,0,14.641,0
		c0,0.905,0,1.608,0,2.562C508.927,178.417,504.197,178.417,499.225,178.417z"/>
	<path fill-rule="evenodd" clip-rule="evenodd" d="M506.684,200.135c-0.002-0.789-0.006-1.234-0.004-1.668
		c0-0.279,0.004-0.547,0.04-0.965c4.933,0,9.636,0,14.61,0c0,0.825,0.015,1.526,0.044,2.632
		C516.55,200.247,511.658,200.134,506.684,200.135z"/>
	<path fill-rule="evenodd" clip-rule="evenodd" d="M521.328,130.893c0.002,0.444,0.032,0.829,0.032,1.105
		c0,0.417-0.03,0.828-0.03,1.38c-4.944,0-9.674,0-14.646,0c0-0.828,0-1.516,0-2.485C511.65,130.893,516.355,130.893,521.328,130.893
		z"/>
</g>
<path fill-rule="evenodd" clip-rule="evenodd" d="M499.305,159.301c0-0.955,0-1.657,0-2.512c4.975,0,9.672,0,14.641,0
	c0,0.854,0,1.557,0,2.512C509.034,159.301,504.285,159.301,499.305,159.301z"/>
<path fill-rule="evenodd" clip-rule="evenodd" d="M499.358,153.421c0-0.955,0-1.657,0-2.512c4.975,0,9.672,0,14.641,0
	c0,0.854,0,1.557,0,2.512C509.088,153.421,504.339,153.421,499.358,153.421z"/>
<path fill-rule="evenodd" clip-rule="evenodd" d="M506.625,145.014c0-0.955,0-1.657,0-2.512c4.975,0,9.672,0,14.641,0
	c0,0.854,0,1.557,0,2.512C516.354,145.014,511.605,145.014,506.625,145.014z"/>
<path fill-rule="evenodd" clip-rule="evenodd" d="M506.549,139.25c0-0.955,0-1.657,0-2.512c4.975,0,9.672,0,14.641,0
	c0,0.854,0,1.557,0,2.512C516.278,139.25,511.529,139.25,506.549,139.25z"/>
<path fill-rule="evenodd" clip-rule="evenodd" d="M506.625,184.55c4.975,0,9.672,0,14.641,0c0,0.854,0,1.557,0,2.512
	c-4.911,0-9.66,0-14.641,0"/>
<path fill-rule="evenodd" clip-rule="evenodd" d="M506.625,194.023c0-0.955,0-1.657,0-2.512c4.975,0,9.672,0,14.641,0
	c0,0.854,0,1.557,0,2.512C516.354,194.023,511.605,194.023,506.625,194.023z"/>
<g id="图层_2">
	<path fill-rule="evenodd" clip-rule="evenodd" d="M506.817,166.711c0-0.955,0-1.657,0-2.512c4.975,0,9.672,0,14.641,0
		c0,0.854,0,1.557,0,2.512C516.547,166.711,511.798,166.711,506.817,166.711z"/>
</g>
</svg>
